<?xml version="1.0" standalone="no"?>
<!DOCTYPE svg PUBLIC "-//W3C//DTD SVG 20010904//EN"
 "http://www.w3.org/TR/2001/REC-SVG-20010904/DTD/svg10.dtd">
<svg version="1.0" xmlns="http://www.w3.org/2000/svg"
 width="600.000000pt" height="800.000000pt" viewBox="0 0 600.000000 800.000000"
 preserveAspectRatio="xMidYMid meet">

<g transform="translate(0.000000,800.000000) scale(0.100000,-0.100000)"
fill="#000000" stroke="none">
<path d="M1097 5813 c-3 -15 -6 -836 -7 -1823 -1 -1469 2 -1798 12 -1813 13
-17 60 -18 1018 -14 1156 5 1059 -3 1444 107 182 51 376 140 518 236 85 58
221 169 272 223 16 17 33 28 38 25 4 -3 8 1 8 9 0 8 19 37 43 63 152 174 273
370 355 579 38 96 56 156 90 295 21 87 23 462 3 570 -108 596 -447 1029 -1039
1324 -177 89 -448 185 -612 218 -102 21 -135 21 -1121 25 l-1016 4 -6 -28z
m673 -628 c0 -151 3 -275 8 -275 4 0 109 109 234 243 125 133 241 257 258 275
l31 32 191 0 191 0 -49 -52 c-38 -42 -356 -375 -516 -541 -16 -16 -28 -31 -28
-34 0 -5 231 -262 507 -564 79 -86 143 -160 143 -163 0 -3 -91 -6 -202 -6
l-203 0 -185 217 c-266 311 -360 418 -371 421 -5 2 -9 -119 -9 -317 l0 -321
-145 0 -145 0 0 680 0 680 145 0 145 0 0 -275z m1910 264 c205 -32 347 -180
358 -373 8 -131 -25 -236 -100 -321 -81 -92 -162 -116 -418 -124 l-195 -6 -3
-262 -2 -263 -152 0 -151 0 5 128 c6 142 22 202 88 335 51 101 119 187 194
244 l61 45 3 -51 c2 -42 8 -54 28 -68 24 -15 27 -15 52 4 23 17 28 30 35 94
19 174 10 154 97 217 43 31 79 60 79 64 1 4 -27 8 -61 10 l-61 3 -14 42 c-17
50 -70 100 -116 108 -26 5 -35 13 -43 38 -18 63 -110 62 -129 -1 -5 -18 -18
-35 -30 -38 -30 -9 -55 -35 -55 -56 0 -12 -11 -23 -29 -29 -17 -6 -39 -26 -51
-46 -37 -63 -45 -41 -48 145 l-2 172 297 0 c164 0 327 -5 363 -11z m-250 -275
c11 -12 11 -18 -2 -30 -18 -18 -48 -8 -48 15 0 33 28 42 50 15z m-1667 -1523
c-1 -142 1 -268 4 -280 6 -22 7 -21 43 14 l37 37 7 -35 c9 -48 74 -107 119
-108 l32 -1 -31 -13 c-40 -18 -90 -78 -98 -118 l-6 -31 -43 42 c-24 23 -46 42
-50 42 -4 0 -7 -142 -7 -314 l0 -315 -141 -3 c-77 -2 -143 -1 -145 1 -7 8 -4
1328 3 1335 4 4 68 6 142 5 l136 -1 -2 -257z m895 250 c-4 -12 -276 -303 -490
-526 -66 -69 -78 -77 -83 -60 -25 81 -78 130 -153 143 l-42 7 37 41 c21 22
114 122 207 222 l169 182 179 0 c106 0 178 -4 176 -9z m1107 -25 c185 -77 266
-193 266 -379 0 -129 -58 -260 -142 -320 -83 -60 -234 -89 -446 -86 -61 1
-116 -2 -122 -5 -8 -5 -11 -88 -11 -262 l0 -254 -139 0 -138 0 -7 53 c-9 80
-7 491 4 592 11 103 30 181 59 245 l21 45 -8 -45 c-4 -25 -7 -97 -7 -160 l0
-115 70 3 c70 2 135 27 270 104 92 52 265 191 265 213 0 9 -158 166 -315 313
-8 6 -18 12 -23 12 -5 0 -15 6 -21 13 -11 14 -91 40 -176 56 -36 7 32 9 240 8
l290 -2 70 -29z m-330 -241 c0 -22 -31 -33 -47 -17 -17 17 -1 44 24 40 15 -2
23 -10 23 -23z m-1291 -422 c41 -48 218 -244 305 -338 25 -28 64 -70 85 -95
21 -25 64 -72 95 -105 31 -33 67 -72 80 -87 l24 -27 -199 4 -199 3 -24 29
c-29 35 -182 212 -196 227 -6 6 -33 38 -60 71 -27 33 -74 87 -103 119 l-52 60
50 13 c28 7 64 22 80 34 34 25 73 101 64 124 -11 28 8 16 50 -32z"/>
</g>
</svg>
